<svg xmlns="http://www.w3.org/2000/svg" viewBox="0 0 44.26 44.26" id="slack"><g><path d="M32.62 10.38v5.86A4.53 4.53 0 0 1 30 20.48a4.64 4.64 0 0 1-6.57-3.27 5.09 5.09 0 0 1-.09-.95V4.69a4.65 4.65 0 0 1 9.23-.86 5.62 5.62 0 0 1 .07.92zM10.48 20.94H4.69a4.65 4.65 0 0 1-.86-9.23 5.82 5.82 0 0 1 .93-.07h11.47a4.48 4.48 0 0 1 3.21 1.24 4.43 4.43 0 0 1 1.31 4.69 4.46 4.46 0 0 1-3.56 3.28 3.87 3.87 0 0 1-.9.09zm1.16 12.85V28a4.65 4.65 0 0 1 9.25-.78 5.09 5.09 0 0 1 .05.69v11.7a4.65 4.65 0 0 1-9.24.7 4.42 4.42 0 0 1-.06-.81zm22.14-1.17h-5.76a4.55 4.55 0 0 1-3.83-1.95 4.65 4.65 0 0 1 2.88-7.27 4.6 4.6 0 0 1 .91-.08h11.59A4.63 4.63 0 0 1 44.16 27a4.66 4.66 0 0 1-4.62 5.59c-1.92.04-3.84.03-5.76.03zM20.94 6.76v2.4c0 .13 0 .15-.16.15h-4.51a4.62 4.62 0 0 1-4.37-3.16A4.48 4.48 0 0 1 13 1.38a4.65 4.65 0 0 1 7.35 1 4.54 4.54 0 0 1 .59 2.31zM37.5 20.94h-2.4c-.11 0-.15 0-.15-.14v-4.64a4.65 4.65 0 1 1 5.37 4.73 6.3 6.3 0 0 1-.75.05zM6.76 23.32h2.41c.11 0 .14 0 .14.14v4.64a4.66 4.66 0 1 1-5.37-4.72 4.36 4.36 0 0 1 .72-.05zM23.32 37.5v-2.38c0-.15.05-.17.18-.17H28a4.64 4.64 0 0 1 4.37 3.15 4.52 4.52 0 0 1-1.11 4.78 4.64 4.64 0 0 1-7.34-1 4.58 4.58 0 0 1-.6-2.31z"></path></g></svg>